<?xml version="1.0" encoding="UTF-8" standalone="no"?>
<!-- Created with Inkscape (http://www.inkscape.org/) -->

<svg
   xmlns:dc="http://purl.org/dc/elements/1.1/"
   xmlns:cc="http://creativecommons.org/ns#"
   xmlns:rdf="http://www.w3.org/1999/02/22-rdf-syntax-ns#"
   xmlns:svg="http://www.w3.org/2000/svg"
   xmlns="http://www.w3.org/2000/svg"
   xmlns:sodipodi="http://sodipodi.sourceforge.net/DTD/sodipodi-0.dtd"
   xmlns:inkscape="http://www.inkscape.org/namespaces/inkscape"
   width="1217.1959"
   height="225.66029"
   id="svg4068"
   version="1.1"
   inkscape:version="0.48.4 r9939"
   sodipodi:docname="Nuevo documento 10">
  <defs
     id="defs4070">
    <clipPath
       clipPathUnits="userSpaceOnUse"
       id="clipPath16">
      <path
         d="m 0,1334 2667,0 L 2667,0 0,0 0,1334 z"
         id="path18"
         inkscape:connector-curvature="0" />
    </clipPath>
  </defs>
  <sodipodi:namedview
     id="base"
     pagecolor="#ffffff"
     bordercolor="#666666"
     borderopacity="1.0"
     inkscape:pageopacity="0.0"
     inkscape:pageshadow="2"
     inkscape:zoom="0.35"
     inkscape:cx="608.59801"
     inkscape:cy="112.8301"
     inkscape:document-units="px"
     inkscape:current-layer="layer1"
     showgrid="false"
     fit-margin-top="0"
     fit-margin-left="0"
     fit-margin-right="0"
     fit-margin-bottom="0"
     inkscape:window-width="637"
     inkscape:window-height="396"
     inkscape:window-x="-2"
     inkscape:window-y="622"
     inkscape:window-maximized="0" />
  <metadata
     id="metadata4073">
    <rdf:RDF>
      <cc:Work
         rdf:about="">
        <dc:format>image/svg+xml</dc:format>
        <dc:type
           rdf:resource="http://purl.org/dc/dcmitype/StillImage" />
        <dc:title></dc:title>
      </cc:Work>
    </rdf:RDF>
  </metadata>
  <g
     inkscape:label="Capa 1"
     inkscape:groupmode="layer"
     id="layer1"
     transform="translate(258.59801,-419.532)">
    <g
       transform="matrix(1.25,0,0,-1.25,-1316.875,1366.1121)"
       id="g12">
      <g
         id="g14"
         clip-path="url(#clipPath16)">
        <g
           id="g20"
           transform="translate(901.1841,678.0835)">
          <path
             d="m 0,0 c -9.683,-1.426 -18.532,-7.286 -23.735,-15.563 -6.084,-9.48 -7.627,-21.443 -5.328,-32.368 1.905,-9.04 6.924,-17.553 14.472,-23 9.02,-6.654 21.391,-8.31 31.915,-4.513 6.983,2.49 13.008,7.384 17.133,13.52 6.951,10.249 8.816,23.624 5.42,35.482 C 37.302,-17.324 31.37,-9.053 23.138,-4.244 16.247,-0.138 7.896,1.255 0,0 m 43.937,79.038 c 4.494,0.282 9.013,0.026 13.52,0.111 2.266,-0.066 4.579,0.237 6.813,-0.263 1.786,-0.512 2.358,-2.509 2.22,-4.171 -0.046,-56.294 0.02,-112.582 -0.033,-168.869 0.145,-2.016 -1.734,-3.692 -3.712,-3.462 -5.478,-0.013 -10.964,-0.033 -16.436,0.007 -1.807,-0.164 -3.298,1.373 -3.476,3.094 -0.499,4.165 -0.657,8.369 -1.058,12.548 -5.163,-6.255 -11.608,-11.536 -19.097,-14.749 -11.037,-4.848 -23.755,-5.058 -35.271,-1.852 -12.535,3.482 -23.559,11.713 -30.811,22.467 -13.271,19.61 -14.65,46.335 -4.428,67.554 5.768,11.957 15.622,22.008 27.795,27.415 10.558,4.684 22.639,6.129 33.945,3.632 10.655,-2.384 20.089,-8.79 27.119,-17.034 -0.013,23.085 -0.013,46.177 -0.007,69.268 -0.21,1.899 0.801,4.139 2.917,4.304"
             style="fill:#1a171b;fill-opacity:1;fill-rule:nonzero;stroke:none"
             id="path22"
             inkscape:connector-curvature="0" />
        </g>
        <g
           id="g24"
           transform="translate(1575.9292,678.0571)">
          <path
             d="m 0,0 c -8.869,-1.366 -17.067,-6.412 -22.31,-13.691 -7.036,-9.611 -9.013,-22.309 -6.668,-33.852 1.925,-9.585 7.371,-18.612 15.576,-24.084 10.617,-7.233 25.378,-7.752 36.442,-1.196 9.63,5.578 16.023,15.826 17.94,26.673 2.451,13.092 -1.379,27.532 -11.069,36.88 C 22.192,-1.577 10.695,1.846 0,0 m 41.21,75.392 c -0.144,1.839 1.223,3.678 3.141,3.705 5.452,0.203 10.918,0 16.378,0.098 1.596,-0.085 3.495,0.243 4.808,-0.926 1.032,-0.848 1.091,-2.267 1.11,-3.501 -0.026,-56.091 -0.013,-112.187 -0.006,-168.278 0.263,-1.958 -1.117,-4.126 -3.239,-4.053 -5.709,-0.066 -11.424,-0.053 -17.127,-0.007 -1.898,-0.105 -3.252,1.675 -3.33,3.423 -0.447,4.066 -0.644,8.152 -0.999,12.226 -6.024,-7.371 -13.953,-13.317 -23.046,-16.286 -11.634,-3.817 -24.543,-3.094 -35.948,1.196 -12.469,4.703 -22.888,14.222 -29.227,25.89 -11.247,20.681 -10.84,47.346 1.3,67.554 6.944,11.595 18.093,20.713 31.055,24.714 11.384,3.508 24.077,3.686 35.199,-0.913 7.739,-3.133 14.466,-8.428 19.899,-14.735 0.019,23.302 -0.04,46.597 0.032,69.893"
             style="fill:#1a171b;fill-opacity:1;fill-rule:nonzero;stroke:none"
             id="path26"
             inkscape:connector-curvature="0" />
        </g>
        <g
           id="g28"
           transform="translate(1174.521,678.0571)">
          <path
             d="m 0,0 c -9.014,-1.393 -17.331,-6.596 -22.56,-14.059 -7.095,-9.952 -8.869,-23.071 -6.109,-34.831 2.168,-9.243 7.666,-17.83 15.701,-23.013 10.721,-7.069 25.496,-7.39 36.454,-0.663 9.394,5.623 15.609,15.714 17.507,26.389 2.464,13.1 -1.36,27.566 -11.076,36.914 C 22.205,-1.563 10.695,1.846 0,0 m -12.154,21.667 c 12.206,3.363 25.792,2.824 37.164,-3.056 6.688,-3.37 12.449,-8.376 17.198,-14.131 0.27,4.376 0.395,8.764 0.756,13.133 0.059,1.761 1.419,3.534 3.311,3.442 5.689,0.066 11.385,0.066 17.074,0 2.168,0.112 3.581,-2.096 3.305,-4.099 -0.007,-36.796 -0.013,-73.591 0,-110.387 0.289,-2.004 -1.111,-4.237 -3.298,-4.132 -5.689,-0.066 -11.385,-0.06 -17.074,-0.007 -1.906,-0.085 -3.259,1.715 -3.324,3.482 -0.427,4.04 -0.631,8.107 -0.999,12.153 -6.228,-7.633 -14.525,-13.71 -24.011,-16.581 -11.72,-3.554 -24.616,-2.628 -35.942,1.879 -13.001,5.19 -23.604,15.629 -29.655,28.183 -10.734,22.231 -8.698,50.592 6.425,70.346 7.227,9.486 17.541,16.628 29.07,19.775"
             style="fill:#1a171b;fill-opacity:1;fill-rule:nonzero;stroke:none"
             id="path30"
             inkscape:connector-curvature="0" />
        </g>
        <g
           id="g32"
           transform="translate(1316.1787,701.4248)">
          <path
             d="m 0,0 c 19.669,2.398 40.199,-5.879 52.687,-21.246 1.176,-1.55 0.44,-3.691 -0.933,-4.848 -3.495,-3.318 -6.963,-6.675 -10.472,-9.972 -1.103,-1.235 -3.041,-1.4 -4.316,-0.355 -3.002,2.279 -5.695,4.96 -8.842,7.043 -12.016,8.572 -29.497,8.743 -41.526,0.124 -7.614,-5.393 -12.594,-13.973 -14.42,-23.039 -2.51,-12.265 -0.217,-25.91 7.844,-35.738 5.932,-7.371 15.083,-11.91 24.511,-12.416 7.929,-0.473 16.148,1.051 22.953,5.295 3.515,2.095 6.511,4.894 9.52,7.633 1.274,1.301 3.475,1.511 4.776,0.105 3.731,-3.488 7.436,-7.016 11.089,-10.589 1.432,-1.282 1.478,-3.646 0.118,-5.013 -5.728,-6.674 -12.948,-12.062 -20.963,-15.688 -12.646,-5.729 -27.27,-6.872 -40.698,-3.403 -11.569,2.969 -22.113,9.65 -29.806,18.769 -14.38,16.805 -18.329,41.23 -11.575,62.088 3.699,11.556 10.859,22.021 20.49,29.425 C -21.062,-5.229 -10.689,-1.13 0,0"
             style="fill:#1a171b;fill-opacity:1;fill-rule:nonzero;stroke:none"
             id="path34"
             inkscape:connector-curvature="0" />
        </g>
        <g
           id="g36"
           transform="translate(1437.9634,678.0508)">
          <path
             d="m 0,0 c -8.737,-1.367 -16.831,-6.221 -22.191,-13.251 -7.529,-9.755 -9.717,-22.973 -7.109,-34.877 2.096,-9.782 8.107,-18.795 16.753,-23.953 11.457,-7.009 26.915,-6.74 38.096,0.723 8.816,5.742 14.571,15.544 16.102,25.871 2.016,12.692 -1.426,26.633 -10.741,35.784 C 22.987,-1.669 11.063,1.872 0,0 m -3.935,22.967 c 12.311,1.945 25.247,0.21 36.461,-5.289 11.076,-5.354 20.359,-14.256 26.278,-25.03 10.918,-19.695 10.458,-45.217 -1.341,-64.426 -6.201,-10.209 -15.484,-18.539 -26.369,-23.486 -11.208,-5.157 -24.012,-6.616 -36.139,-4.461 -11.917,2.102 -23.144,7.943 -31.672,16.536 -8.777,8.724 -14.682,20.214 -16.949,32.367 -2.306,12.423 -1.143,25.536 3.679,37.236 3.837,9.362 10.031,17.764 17.915,24.104 8.067,6.53 17.889,10.839 28.137,12.449"
             style="fill:#1a171b;fill-opacity:1;fill-rule:nonzero;stroke:none"
             id="path38"
             inkscape:connector-curvature="0" />
        </g>
        <g
           id="g40"
           transform="translate(1701.873,672.4468)">
          <path
             d="m 0,0 c -7.489,-6.129 -11.7,-15.497 -12.883,-24.971 22.625,-0.012 45.257,-0.012 67.883,0 C 54.146,-14.972 49.705,-4.94 41.493,1.13 29.53,10.098 11.463,9.579 0,0 m -4.513,23.525 c 11.43,5.624 24.714,7.096 37.189,4.776 C 43.608,26.278 53.87,20.773 61.49,12.66 71.055,2.615 76.462,-10.997 77.369,-24.767 c 0.131,-4.677 0.571,-9.585 -1.025,-14.078 -0.881,-2.569 -3.627,-3.942 -6.235,-3.81 -27.585,-0.02 -55.17,0.006 -82.749,-0.013 1.524,-9.323 6.235,-18.349 14.006,-23.94 9.933,-7.233 23.105,-8.672 34.924,-6.346 6.648,1.38 12.85,4.487 18.25,8.56 1.248,0.841 2.719,2.142 4.342,1.426 1.826,-1.15 3.206,-2.878 4.803,-4.336 1.721,-1.78 3.757,-3.292 5.202,-5.335 0.861,-1.314 0.25,-2.989 -0.788,-4.007 C 58.81,-86.395 46.072,-92.663 32.762,-94.469 20.155,-96.151 6.983,-94.41 -4.48,-88.8 c -10.17,4.947 -18.783,12.988 -24.459,22.757 -11.556,19.873 -11.497,45.829 -0.394,65.879 5.643,10.15 14.348,18.618 24.82,23.689"
             style="fill:#1a171b;fill-opacity:1;fill-rule:nonzero;stroke:none"
             id="path42"
             inkscape:connector-curvature="0" />
        </g>
        <g
           id="g44"
           transform="translate(991.9878,695.7031)">
          <path
             d="m 0,0 c -0.138,1.898 1.55,3.567 3.442,3.422 6.156,0.046 12.318,0.046 18.474,0 1.898,0.145 3.586,-1.55 3.442,-3.448 0.066,-21.91 -0.013,-43.819 0.033,-65.722 0.059,-6.635 1.17,-13.533 4.841,-19.196 2.852,-4.493 7.464,-7.765 12.601,-9.125 8.041,-2.141 16.982,-0.814 23.985,3.718 6.031,3.89 10.813,9.802 13.113,16.615 1.13,3.193 0.821,6.609 0.854,9.926 0.013,21.266 -0.033,42.525 0.02,63.784 -0.152,1.904 1.543,3.593 3.448,3.448 6.143,0.046 12.299,0.046 18.448,0 2.246,0.191 3.797,-2.036 3.488,-4.125 -0.026,-37.019 0.026,-74.038 -0.026,-111.057 0.151,-1.925 -1.577,-3.627 -3.495,-3.462 -5.906,-0.027 -11.812,-0.066 -17.718,0.019 -1.82,-0.039 -3.088,1.708 -3.18,3.384 -0.434,4.723 -0.644,9.46 -1.005,14.176 -4.053,-5.721 -9.013,-10.892 -15.005,-14.597 -6.602,-4.138 -14.42,-6.247 -22.204,-6.076 -10.163,0.045 -20.629,2.942 -28.427,9.67 C 3.764,-99.009 -0.217,-83.393 -0.026,-69.019 0,-46.013 -0.059,-23 0,0"
             style="fill:#1a171b;fill-opacity:1;fill-rule:nonzero;stroke:none"
             id="path46"
             inkscape:connector-curvature="0" />
        </g>
        <g
           id="g48"
           transform="translate(1798.582,611.7319)">
          <path
             d="m 0,0 c 5.755,1.353 12.154,-0.289 16.404,-4.441 6.911,-6.353 7.22,-18.257 0.69,-24.984 -6.11,-6.812 -17.567,-7.463 -24.458,-1.478 -6.287,5.091 -8.087,14.65 -4.356,21.771 C -9.42,-4.553 -5.006,-1.11 0,0"
             style="fill:#d2147a;fill-opacity:1;fill-rule:nonzero;stroke:none"
             id="path50"
             inkscape:connector-curvature="0" />
        </g>
      </g>
    </g>
  </g>
</svg>
